# xmcd CD database file
#
# Track frame offsets:
#	182
#	23580
#	42992
#	63860
#	82507
#	100070
#	113580
#	133657
#	151252
#	169885
#	190825
#
# Disc length: 2776 seconds
#
# Revision: 4
# Processed by: cddbd v1.5.2PL0 Copyright (c) Steve Scherf et al.
# Submitted via: CDex 1.51
#
DISCID=780ad60b
DTITLE=Rita Coolidge - Someday
DYEAR=1994
DGENRE=Country
TTITLE0=I'm Still Learning
TTITLE1=I Stand In Wonder
TTITLE2=Tattler
TTITLE3=Bed of Roses
TTITLE4=Someday
TTITLE5=Hello Blues
TTITLE6=Fascination
TTITLE7=That's Just the Way Love Is
TTITLE8=Old Fashioned Heart
TTITLE9=Fire Me Back
TTITLE10=I Would Not Change a Thing
EXTD=YEAR: 1994
EXTT0=
EXTT1=
EXTT2=
EXTT3=
EXTT4=
EXTT5=
EXTT6=
EXTT7=
EXTT8=
EXTT9=
EXTT10=
PLAYORDER=
